<svg xmlns="http://www.w3.org/2000/svg" xmlns:xlink="http://www.w3.org/1999/xlink" width="325" zoomAndPan="magnify" viewBox="0 0 243.75 96.749999" height="129" preserveAspectRatio="xMidYMid meet" version="1.0"><defs><g/><clipPath id="d0f77ac9a3"><path d="M 7 6.984375 L 18 6.984375 L 18 22 L 7 22 Z M 7 6.984375 " clip-rule="nonzero"/></clipPath><clipPath id="7788f3950c"><path d="M 23 68 L 34 68 L 34 72.8125 L 23 72.8125 Z M 23 68 " clip-rule="nonzero"/></clipPath><clipPath id="0cc14ed5e7"><path d="M 0.394531 60 L 5 60 L 5 65 L 0.394531 65 Z M 0.394531 60 " clip-rule="nonzero"/></clipPath><clipPath id="112ea4eb7d"><path d="M 0.394531 54 L 5 54 L 5 60 L 0.394531 60 Z M 0.394531 54 " clip-rule="nonzero"/></clipPath></defs><path fill="#ffffff" d="M 12.105469 23.449219 C 14.890625 23.449219 17.148438 22.558594 17.148438 21.464844 C 17.148438 20.667969 15.957031 19.984375 14.238281 19.667969 C 14.078125 19.882812 13.917969 20.085938 13.769531 20.273438 C 14.988281 20.460938 15.824219 20.847656 15.824219 21.292969 C 15.824219 21.921875 14.160156 22.433594 12.105469 22.433594 C 10.050781 22.433594 8.386719 21.921875 8.386719 21.292969 C 8.386719 20.847656 9.222656 20.460938 10.4375 20.273438 C 10.289062 20.085938 10.132812 19.882812 9.96875 19.667969 C 8.25 19.984375 7.0625 20.667969 7.0625 21.464844 C 7.0625 22.558594 9.320312 23.449219 12.105469 23.449219 " fill-opacity="1" fill-rule="nonzero"/><g clip-path="url(#d0f77ac9a3)"><path fill="#ffffff" d="M 9.941406 11.8125 C 9.941406 10.617188 10.910156 9.648438 12.105469 9.648438 C 13.300781 9.648438 14.265625 10.617188 14.265625 11.8125 C 14.265625 13.007812 13.300781 13.972656 12.105469 13.972656 C 10.910156 13.972656 9.941406 13.007812 9.941406 11.8125 Z M 17.148438 12.027344 C 17.148438 9.242188 14.890625 6.984375 12.105469 6.984375 C 9.320312 6.984375 7.0625 9.242188 7.0625 12.027344 C 7.0625 15.679688 12.105469 21.25 12.105469 21.25 C 12.105469 21.25 17.148438 15.679688 17.148438 12.027344 " fill-opacity="1" fill-rule="nonzero"/></g><g clip-path="url(#7788f3950c)"><path fill="#ffffff" d="M 30.222656 68.730469 C 30.0625 68.945312 29.90625 69.148438 29.753906 69.335938 C 30.972656 69.523438 31.808594 69.910156 31.808594 70.355469 C 31.808594 70.984375 30.140625 71.496094 28.089844 71.496094 C 26.035156 71.496094 24.371094 70.984375 24.371094 70.355469 C 24.371094 69.910156 25.207031 69.523438 26.421875 69.335938 C 26.273438 69.148438 26.117188 68.945312 25.953125 68.730469 C 24.234375 69.046875 23.046875 69.730469 23.046875 70.527344 C 23.046875 71.621094 25.304688 72.511719 28.089844 72.511719 C 30.875 72.511719 33.132812 71.621094 33.132812 70.527344 C 33.132812 69.730469 31.941406 69.046875 30.222656 68.730469 " fill-opacity="1" fill-rule="nonzero"/></g><path fill="#ffffff" d="M 28.089844 63.035156 C 26.894531 63.035156 25.925781 62.070312 25.925781 60.875 C 25.925781 59.679688 26.894531 58.710938 28.089844 58.710938 C 29.285156 58.710938 30.25 59.679688 30.25 60.875 C 30.25 62.070312 29.285156 63.035156 28.089844 63.035156 Z M 28.089844 56.046875 C 25.304688 56.046875 23.046875 58.304688 23.046875 61.089844 C 23.046875 64.742188 28.089844 70.3125 28.089844 70.3125 C 28.089844 70.3125 33.132812 64.742188 33.132812 61.089844 C 33.132812 58.304688 30.875 56.046875 28.089844 56.046875 " fill-opacity="1" fill-rule="nonzero"/><path fill="#ffffff" d="M 21.546875 22.519531 C 21.023438 22.4375 20.488281 22.359375 19.941406 22.28125 C 19.5 22.214844 19.09375 22.523438 19.027344 22.964844 C 18.964844 23.40625 19.273438 23.816406 19.714844 23.878906 C 20.253906 23.957031 20.785156 24.035156 21.304688 24.113281 C 21.34375 24.121094 21.386719 24.125 21.425781 24.125 C 21.820312 24.125 22.164062 23.835938 22.222656 23.4375 C 22.289062 22.996094 21.988281 22.585938 21.546875 22.519531 " fill-opacity="1" fill-rule="nonzero"/><g clip-path="url(#0cc14ed5e7)"><path fill="#ffffff" d="M 2.09375 61.105469 C 1.925781 60.691406 1.457031 60.492188 1.042969 60.660156 C 0.628906 60.828125 0.433594 61.300781 0.601562 61.714844 C 1.003906 62.703125 1.746094 63.667969 2.804688 64.582031 C 2.957031 64.714844 3.144531 64.777344 3.332031 64.777344 C 3.554688 64.777344 3.78125 64.683594 3.941406 64.5 C 4.234375 64.160156 4.195312 63.652344 3.859375 63.359375 C 2.992188 62.613281 2.402344 61.855469 2.09375 61.105469 " fill-opacity="1" fill-rule="nonzero"/></g><path fill="#ffffff" d="M 11.84375 51.039062 C 12.773438 50.601562 13.769531 50.15625 14.804688 49.726562 C 15.21875 49.554688 15.410156 49.082031 15.242188 48.667969 C 15.066406 48.257812 14.59375 48.0625 14.183594 48.234375 C 13.125 48.679688 12.105469 49.132812 11.15625 49.582031 C 10.753906 49.773438 10.578125 50.253906 10.769531 50.65625 C 10.90625 50.945312 11.199219 51.117188 11.5 51.117188 C 11.617188 51.117188 11.734375 51.09375 11.84375 51.039062 " fill-opacity="1" fill-rule="nonzero"/><path fill="#ffffff" d="M 5.789062 54.324219 C 5.949219 54.324219 6.109375 54.277344 6.246094 54.179688 C 7.046875 53.628906 7.964844 53.066406 8.972656 52.507812 C 9.363281 52.289062 9.503906 51.800781 9.285156 51.410156 C 9.070312 51.019531 8.582031 50.878906 8.1875 51.09375 C 7.136719 51.679688 6.171875 52.269531 5.332031 52.851562 C 4.964844 53.105469 4.871094 53.609375 5.125 53.972656 C 5.28125 54.199219 5.535156 54.324219 5.789062 54.324219 " fill-opacity="1" fill-rule="nonzero"/><path fill="#ffffff" d="M 9.28125 66.519531 C 8.222656 66.0625 7.257812 65.589844 6.421875 65.117188 C 6.035156 64.894531 5.539062 65.035156 5.320312 65.421875 C 5.101562 65.808594 5.238281 66.300781 5.628906 66.519531 C 6.515625 67.023438 7.527344 67.519531 8.636719 68 C 8.742188 68.046875 8.851562 68.070312 8.960938 68.070312 C 9.269531 68.070312 9.566406 67.886719 9.699219 67.582031 C 9.878906 67.171875 9.691406 66.699219 9.28125 66.519531 " fill-opacity="1" fill-rule="nonzero"/><path fill="#ffffff" d="M 24.523438 24.628906 C 25.632812 24.820312 26.710938 25.015625 27.726562 25.210938 C 27.777344 25.222656 27.828125 25.226562 27.878906 25.226562 C 28.257812 25.226562 28.59375 24.960938 28.671875 24.574219 C 28.753906 24.136719 28.46875 23.714844 28.03125 23.628906 C 27.003906 23.429688 25.914062 23.230469 24.792969 23.039062 C 24.355469 22.964844 23.9375 23.261719 23.863281 23.699219 C 23.789062 24.140625 24.082031 24.554688 24.523438 24.628906 " fill-opacity="1" fill-rule="nonzero"/><g clip-path="url(#112ea4eb7d)"><path fill="#ffffff" d="M 1.070312 58.976562 C 1.167969 59.019531 1.269531 59.035156 1.371094 59.035156 C 1.691406 59.035156 1.992188 58.84375 2.117188 58.53125 C 2.425781 57.765625 3 56.964844 3.820312 56.152344 C 4.136719 55.839844 4.136719 55.328125 3.824219 55.011719 C 3.511719 54.695312 3 54.691406 2.683594 55.007812 C 1.707031 55.976562 1.011719 56.957031 0.621094 57.925781 C 0.457031 58.339844 0.65625 58.8125 1.070312 58.976562 " fill-opacity="1" fill-rule="nonzero"/></g><path fill="#ffffff" d="M 45.84375 32.183594 C 45.671875 31.058594 44.96875 30 43.75 29.035156 C 43.398438 28.761719 42.890625 28.820312 42.617188 29.167969 C 42.339844 29.519531 42.398438 30.027344 42.746094 30.300781 C 43.632812 31.003906 44.140625 31.71875 44.246094 32.425781 C 44.308594 32.824219 44.652344 33.109375 45.042969 33.109375 C 45.085938 33.109375 45.125 33.109375 45.164062 33.101562 C 45.605469 33.035156 45.910156 32.621094 45.84375 32.183594 " fill-opacity="1" fill-rule="nonzero"/><path fill="#ffffff" d="M 44.511719 34.660156 C 44.164062 34.382812 43.65625 34.4375 43.378906 34.785156 C 42.851562 35.4375 42.089844 36.128906 41.117188 36.832031 C 40.753906 37.097656 40.675781 37.601562 40.9375 37.960938 C 41.09375 38.179688 41.339844 38.292969 41.589844 38.292969 C 41.753906 38.292969 41.921875 38.242188 42.0625 38.140625 C 43.152344 37.347656 44.019531 36.5625 44.636719 35.796875 C 44.914062 35.449219 44.859375 34.941406 44.511719 34.660156 " fill-opacity="1" fill-rule="nonzero"/><path fill="#ffffff" d="M 34.46875 25.097656 C 33.472656 24.828125 32.394531 24.558594 31.257812 24.304688 C 30.824219 24.203125 30.390625 24.476562 30.292969 24.914062 C 30.195312 25.347656 30.46875 25.78125 30.902344 25.878906 C 32.015625 26.128906 33.074219 26.390625 34.046875 26.652344 C 34.117188 26.671875 34.191406 26.683594 34.257812 26.683594 C 34.617188 26.683594 34.941406 26.445312 35.039062 26.085938 C 35.152344 25.65625 34.898438 25.210938 34.46875 25.097656 " fill-opacity="1" fill-rule="nonzero"/><path fill="#ffffff" d="M 15.347656 68.714844 C 14.261719 68.382812 13.230469 68.039062 12.277344 67.699219 C 11.855469 67.546875 11.394531 67.765625 11.246094 68.183594 C 11.09375 68.605469 11.3125 69.066406 11.734375 69.21875 C 12.707031 69.566406 13.765625 69.917969 14.871094 70.257812 C 14.953125 70.28125 15.03125 70.292969 15.109375 70.292969 C 15.457031 70.292969 15.773438 70.070312 15.882812 69.726562 C 16.011719 69.300781 15.773438 68.847656 15.347656 68.714844 " fill-opacity="1" fill-rule="nonzero"/><path fill="#ffffff" d="M 41.167969 28.351562 C 41.355469 27.945312 41.179688 27.46875 40.773438 27.28125 C 39.867188 26.859375 38.8125 26.449219 37.648438 26.054688 C 37.230469 25.910156 36.769531 26.136719 36.628906 26.558594 C 36.484375 26.980469 36.710938 27.441406 37.132812 27.582031 C 38.242188 27.957031 39.242188 28.351562 40.097656 28.746094 C 40.207031 28.796875 40.324219 28.820312 40.4375 28.820312 C 40.742188 28.820312 41.03125 28.648438 41.167969 28.351562 " fill-opacity="1" fill-rule="nonzero"/><path fill="#ffffff" d="M 38.425781 38.535156 C 37.566406 39.015625 36.601562 39.515625 35.558594 40.015625 C 35.15625 40.210938 34.988281 40.691406 35.179688 41.09375 C 35.320312 41.382812 35.609375 41.550781 35.910156 41.550781 C 36.027344 41.550781 36.144531 41.527344 36.257812 41.472656 C 37.332031 40.957031 38.328125 40.441406 39.214844 39.941406 C 39.605469 39.722656 39.742188 39.230469 39.523438 38.84375 C 39.304688 38.453125 38.8125 38.316406 38.425781 38.535156 " fill-opacity="1" fill-rule="nonzero"/><path fill="#ffffff" d="M 32.605469 41.351562 C 31.660156 41.753906 30.648438 42.167969 29.59375 42.582031 C 29.179688 42.746094 28.972656 43.210938 29.136719 43.628906 C 29.261719 43.945312 29.566406 44.140625 29.886719 44.140625 C 29.984375 44.140625 30.085938 44.121094 30.179688 44.085938 C 31.25 43.664062 32.28125 43.246094 33.238281 42.835938 C 33.648438 42.660156 33.839844 42.1875 33.664062 41.777344 C 33.488281 41.367188 33.011719 41.175781 32.605469 41.351562 " fill-opacity="1" fill-rule="nonzero"/><path fill="#ffffff" d="M 23.730469 46.402344 C 23.820312 46.402344 23.910156 46.386719 23.996094 46.359375 C 24.964844 46.019531 26.007812 45.652344 27.097656 45.25 C 27.515625 45.097656 27.730469 44.632812 27.578125 44.214844 C 27.425781 43.796875 26.960938 43.582031 26.542969 43.734375 C 25.460938 44.132812 24.425781 44.5 23.464844 44.835938 C 23.042969 44.980469 22.820312 45.441406 22.96875 45.863281 C 23.085938 46.195312 23.398438 46.402344 23.730469 46.402344 " fill-opacity="1" fill-rule="nonzero"/><path fill="#ffffff" d="M 20.367188 45.902344 L 19.5625 46.183594 C 18.773438 46.457031 18 46.738281 17.257812 47.019531 C 16.839844 47.175781 16.628906 47.640625 16.789062 48.058594 C 16.910156 48.382812 17.21875 48.582031 17.542969 48.582031 C 17.636719 48.582031 17.734375 48.5625 17.828125 48.527344 C 18.558594 48.253906 19.320312 47.976562 20.09375 47.707031 L 20.890625 47.429688 C 21.3125 47.285156 21.539062 46.824219 21.390625 46.402344 C 21.246094 45.980469 20.785156 45.757812 20.367188 45.902344 " fill-opacity="1" fill-rule="nonzero"/><path fill="#ffffff" d="M 20.027344 70.027344 C 19.5 69.890625 18.980469 69.753906 18.476562 69.617188 C 18.046875 69.5 17.601562 69.757812 17.488281 70.1875 C 17.371094 70.617188 17.625 71.0625 18.054688 71.175781 C 18.566406 71.316406 19.089844 71.453125 19.628906 71.589844 C 19.695312 71.609375 19.761719 71.617188 19.828125 71.617188 C 20.1875 71.617188 20.515625 71.375 20.609375 71.011719 C 20.71875 70.578125 20.460938 70.140625 20.027344 70.027344 " fill-opacity="1" fill-rule="nonzero"/><g fill="#ffffff" fill-opacity="1"><g transform="translate(52.00904, 71.460543)"><g><path d="M 12.390625 -25.28125 L 12.390625 -18.15625 L 26.671875 -18.15625 L 26.671875 -11.09375 L 12.390625 -11.09375 L 12.390625 0 L 3.234375 0 L 3.234375 -32.359375 L 28.609375 -32.359375 L 28.609375 -25.28125 Z M 12.390625 -25.28125 "/></g></g></g><g fill="#ffffff" fill-opacity="1"><g transform="translate(78.165632, 71.460543)"><g><path d="M 15.390625 0.421875 C 12.710938 0.421875 10.296875 -0.128906 8.140625 -1.234375 C 5.984375 -2.347656 4.296875 -3.890625 3.078125 -5.859375 C 1.859375 -7.835938 1.25 -10.078125 1.25 -12.578125 C 1.25 -15.035156 1.859375 -17.25 3.078125 -19.21875 C 4.296875 -21.195312 5.972656 -22.734375 8.109375 -23.828125 C 10.253906 -24.921875 12.679688 -25.46875 15.390625 -25.46875 C 18.097656 -25.46875 20.53125 -24.921875 22.6875 -23.828125 C 24.84375 -22.734375 26.519531 -21.207031 27.71875 -19.25 C 28.925781 -17.289062 29.53125 -15.066406 29.53125 -12.578125 C 29.53125 -10.078125 28.925781 -7.835938 27.71875 -5.859375 C 26.519531 -3.890625 24.84375 -2.347656 22.6875 -1.234375 C 20.53125 -0.128906 18.097656 0.421875 15.390625 0.421875 Z M 15.390625 -6.5625 C 16.929688 -6.5625 18.191406 -7.09375 19.171875 -8.15625 C 20.160156 -9.21875 20.65625 -10.691406 20.65625 -12.578125 C 20.65625 -14.421875 20.160156 -15.863281 19.171875 -16.90625 C 18.191406 -17.957031 16.929688 -18.484375 15.390625 -18.484375 C 13.847656 -18.484375 12.582031 -17.957031 11.59375 -16.90625 C 10.613281 -15.863281 10.125 -14.421875 10.125 -12.578125 C 10.125 -10.691406 10.613281 -9.21875 11.59375 -8.15625 C 12.582031 -7.09375 13.847656 -6.5625 15.390625 -6.5625 Z M 15.390625 -6.5625 "/></g></g></g><g fill="#ffffff" fill-opacity="1"><g transform="translate(105.431362, 71.460543)"><g><path d="M 11.1875 -22.046875 C 12.082031 -23.179688 13.242188 -24.035156 14.671875 -24.609375 C 16.109375 -25.179688 17.75 -25.46875 19.59375 -25.46875 L 19.59375 -17.5625 C 18.789062 -17.65625 18.128906 -17.703125 17.609375 -17.703125 C 15.734375 -17.703125 14.257812 -17.191406 13.1875 -16.171875 C 12.125 -15.160156 11.59375 -13.609375 11.59375 -11.515625 L 11.59375 0 L 2.8125 0 L 2.8125 -25.046875 L 11.1875 -25.046875 Z M 11.1875 -22.046875 "/></g></g></g><g fill="#ffffff" fill-opacity="1"><g transform="translate(122.391318, 71.460543)"><g/></g></g><g fill="#ffffff" fill-opacity="1"><g transform="translate(132.32672, 71.460543)"><g><path d="M 12.390625 -25.28125 L 12.390625 -18.15625 L 26.671875 -18.15625 L 26.671875 -11.09375 L 12.390625 -11.09375 L 12.390625 0 L 3.234375 0 L 3.234375 -32.359375 L 28.609375 -32.359375 L 28.609375 -25.28125 Z M 12.390625 -25.28125 "/></g></g></g><g fill="#ffffff" fill-opacity="1"><g transform="translate(158.483309, 71.460543)"><g><path d="M 11.1875 -22.046875 C 12.082031 -23.179688 13.242188 -24.035156 14.671875 -24.609375 C 16.109375 -25.179688 17.75 -25.46875 19.59375 -25.46875 L 19.59375 -17.5625 C 18.789062 -17.65625 18.128906 -17.703125 17.609375 -17.703125 C 15.734375 -17.703125 14.257812 -17.191406 13.1875 -16.171875 C 12.125 -15.160156 11.59375 -13.609375 11.59375 -11.515625 L 11.59375 0 L 2.8125 0 L 2.8125 -25.046875 L 11.1875 -25.046875 Z M 11.1875 -22.046875 "/></g></g></g><g fill="#ffffff" fill-opacity="1"><g transform="translate(175.443265, 71.460543)"><g><path d="M 28.421875 -12.484375 C 28.421875 -12.421875 28.375 -11.695312 28.28125 -10.3125 L 10.078125 -10.3125 C 10.441406 -9.007812 11.15625 -8.007812 12.21875 -7.3125 C 13.28125 -6.625 14.613281 -6.28125 16.21875 -6.28125 C 17.425781 -6.28125 18.46875 -6.445312 19.34375 -6.78125 C 20.21875 -7.125 21.101562 -7.679688 22 -8.453125 L 26.625 -3.65625 C 24.1875 -0.9375 20.628906 0.421875 15.953125 0.421875 C 13.015625 0.421875 10.4375 -0.128906 8.21875 -1.234375 C 6.007812 -2.347656 4.296875 -3.890625 3.078125 -5.859375 C 1.859375 -7.835938 1.25 -10.078125 1.25 -12.578125 C 1.25 -15.035156 1.84375 -17.242188 3.03125 -19.203125 C 4.21875 -21.160156 5.859375 -22.691406 7.953125 -23.796875 C 10.046875 -24.910156 12.398438 -25.46875 15.015625 -25.46875 C 17.515625 -25.46875 19.78125 -24.953125 21.8125 -23.921875 C 23.84375 -22.890625 25.453125 -21.394531 26.640625 -19.4375 C 27.828125 -17.476562 28.421875 -15.160156 28.421875 -12.484375 Z M 15.0625 -19.234375 C 13.707031 -19.234375 12.578125 -18.847656 11.671875 -18.078125 C 10.765625 -17.304688 10.1875 -16.253906 9.9375 -14.921875 L 20.203125 -14.921875 C 19.953125 -16.253906 19.367188 -17.304688 18.453125 -18.078125 C 17.546875 -18.847656 16.414062 -19.234375 15.0625 -19.234375 Z M 15.0625 -19.234375 "/></g></g></g><g fill="#ffffff" fill-opacity="1"><g transform="translate(201.599862, 71.460543)"><g><path d="M 28.421875 -12.484375 C 28.421875 -12.421875 28.375 -11.695312 28.28125 -10.3125 L 10.078125 -10.3125 C 10.441406 -9.007812 11.15625 -8.007812 12.21875 -7.3125 C 13.28125 -6.625 14.613281 -6.28125 16.21875 -6.28125 C 17.425781 -6.28125 18.46875 -6.445312 19.34375 -6.78125 C 20.21875 -7.125 21.101562 -7.679688 22 -8.453125 L 26.625 -3.65625 C 24.1875 -0.9375 20.628906 0.421875 15.953125 0.421875 C 13.015625 0.421875 10.4375 -0.128906 8.21875 -1.234375 C 6.007812 -2.347656 4.296875 -3.890625 3.078125 -5.859375 C 1.859375 -7.835938 1.25 -10.078125 1.25 -12.578125 C 1.25 -15.035156 1.84375 -17.242188 3.03125 -19.203125 C 4.21875 -21.160156 5.859375 -22.691406 7.953125 -23.796875 C 10.046875 -24.910156 12.398438 -25.46875 15.015625 -25.46875 C 17.515625 -25.46875 19.78125 -24.953125 21.8125 -23.921875 C 23.84375 -22.890625 25.453125 -21.394531 26.640625 -19.4375 C 27.828125 -17.476562 28.421875 -15.160156 28.421875 -12.484375 Z M 15.0625 -19.234375 C 13.707031 -19.234375 12.578125 -18.847656 11.671875 -18.078125 C 10.765625 -17.304688 10.1875 -16.253906 9.9375 -14.921875 L 20.203125 -14.921875 C 19.953125 -16.253906 19.367188 -17.304688 18.453125 -18.078125 C 17.546875 -18.847656 16.414062 -19.234375 15.0625 -19.234375 Z M 15.0625 -19.234375 "/></g></g></g><g fill="#ffffff" fill-opacity="1"><g transform="translate(54.112454, 29.276385)"><g><path d="M 14.546875 -2.234375 C 13.960938 -1.410156 13.15625 -0.789062 12.125 -0.375 C 11.09375 0.03125 9.890625 0.234375 8.515625 0.234375 C 7.128906 0.234375 5.898438 -0.0859375 4.828125 -0.734375 C 3.753906 -1.390625 2.921875 -2.316406 2.328125 -3.515625 C 1.742188 -4.710938 1.441406 -6.101562 1.421875 -7.6875 L 1.421875 -9.171875 C 1.421875 -11.734375 2.019531 -13.71875 3.21875 -15.125 C 4.414062 -16.539062 6.097656 -17.25 8.265625 -17.25 C 10.035156 -17.25 11.460938 -16.796875 12.546875 -15.890625 C 13.628906 -14.984375 14.296875 -13.695312 14.546875 -12.03125 L 12.296875 -12.03125 C 11.878906 -14.28125 10.539062 -15.40625 8.28125 -15.40625 C 6.769531 -15.40625 5.625 -14.875 4.84375 -13.8125 C 4.070312 -12.757812 3.6875 -11.234375 3.6875 -9.234375 L 3.6875 -7.84375 C 3.6875 -5.9375 4.117188 -4.414062 4.984375 -3.28125 C 5.859375 -2.15625 7.039062 -1.59375 8.53125 -1.59375 C 9.375 -1.59375 10.109375 -1.6875 10.734375 -1.875 C 11.367188 -2.0625 11.894531 -2.378906 12.3125 -2.828125 L 12.3125 -6.65625 L 8.375 -6.65625 L 8.375 -8.46875 L 14.546875 -8.46875 Z M 14.546875 -2.234375 "/></g></g><g transform="translate(70.417976, 29.276385)"><g><path d="M 6.890625 0.234375 C 5.171875 0.234375 3.773438 -0.328125 2.703125 -1.453125 C 1.628906 -2.578125 1.09375 -4.082031 1.09375 -5.96875 L 1.09375 -6.375 C 1.09375 -7.625 1.332031 -8.738281 1.8125 -9.71875 C 2.289062 -10.707031 2.957031 -11.476562 3.8125 -12.03125 C 4.675781 -12.59375 5.609375 -12.875 6.609375 -12.875 C 8.253906 -12.875 9.53125 -12.332031 10.4375 -11.25 C 11.351562 -10.164062 11.8125 -8.617188 11.8125 -6.609375 L 11.8125 -5.703125 L 3.25 -5.703125 C 3.28125 -4.453125 3.644531 -3.441406 4.34375 -2.671875 C 5.039062 -1.910156 5.925781 -1.53125 7 -1.53125 C 7.757812 -1.53125 8.40625 -1.6875 8.9375 -2 C 9.46875 -2.3125 9.929688 -2.722656 10.328125 -3.234375 L 11.65625 -2.203125 C 10.59375 -0.578125 9.003906 0.234375 6.890625 0.234375 Z M 6.609375 -11.109375 C 5.742188 -11.109375 5.015625 -10.789062 4.421875 -10.15625 C 3.828125 -9.519531 3.457031 -8.628906 3.3125 -7.484375 L 9.65625 -7.484375 L 9.65625 -7.640625 C 9.59375 -8.742188 9.296875 -9.597656 8.765625 -10.203125 C 8.234375 -10.804688 7.515625 -11.109375 6.609375 -11.109375 Z M 6.609375 -11.109375 "/></g></g><g transform="translate(83.100049, 29.276385)"><g><path d="M 4.5625 -15.703125 L 4.5625 -12.640625 L 6.9375 -12.640625 L 6.9375 -10.96875 L 4.5625 -10.96875 L 4.5625 -3.125 C 4.5625 -2.625 4.664062 -2.242188 4.875 -1.984375 C 5.09375 -1.734375 5.457031 -1.609375 5.96875 -1.609375 C 6.207031 -1.609375 6.546875 -1.65625 6.984375 -1.75 L 6.984375 0 C 6.421875 0.15625 5.867188 0.234375 5.328125 0.234375 C 4.359375 0.234375 3.628906 -0.0546875 3.140625 -0.640625 C 2.648438 -1.222656 2.40625 -2.050781 2.40625 -3.125 L 2.40625 -10.96875 L 0.109375 -10.96875 L 0.109375 -12.640625 L 2.40625 -12.640625 L 2.40625 -15.703125 Z M 4.5625 -15.703125 "/></g></g><g transform="translate(90.919686, 29.276385)"><g/></g><g transform="translate(96.845779, 29.276385)"><g><path d="M 6.984375 -7.578125 C 5.066406 -8.140625 3.664062 -8.820312 2.78125 -9.625 C 1.90625 -10.425781 1.46875 -11.421875 1.46875 -12.609375 C 1.46875 -13.953125 2.003906 -15.0625 3.078125 -15.9375 C 4.148438 -16.8125 5.546875 -17.25 7.265625 -17.25 C 8.429688 -17.25 9.472656 -17.019531 10.390625 -16.5625 C 11.304688 -16.113281 12.015625 -15.492188 12.515625 -14.703125 C 13.015625 -13.910156 13.265625 -13.039062 13.265625 -12.09375 L 11.015625 -12.09375 C 11.015625 -13.125 10.6875 -13.929688 10.03125 -14.515625 C 9.375 -15.109375 8.453125 -15.40625 7.265625 -15.40625 C 6.148438 -15.40625 5.28125 -15.160156 4.65625 -14.671875 C 4.039062 -14.179688 3.734375 -13.503906 3.734375 -12.640625 C 3.734375 -11.953125 4.023438 -11.367188 4.609375 -10.890625 C 5.203125 -10.410156 6.207031 -9.972656 7.625 -9.578125 C 9.039062 -9.179688 10.144531 -8.738281 10.9375 -8.25 C 11.738281 -7.769531 12.332031 -7.210938 12.71875 -6.578125 C 13.101562 -5.941406 13.296875 -5.191406 13.296875 -4.328125 C 13.296875 -2.941406 12.757812 -1.832031 11.6875 -1 C 10.613281 -0.175781 9.175781 0.234375 7.375 0.234375 C 6.207031 0.234375 5.113281 0.0078125 4.09375 -0.4375 C 3.082031 -0.882812 2.300781 -1.5 1.75 -2.28125 C 1.207031 -3.0625 0.9375 -3.945312 0.9375 -4.9375 L 3.1875 -4.9375 C 3.1875 -3.90625 3.566406 -3.085938 4.328125 -2.484375 C 5.085938 -1.890625 6.101562 -1.59375 7.375 -1.59375 C 8.5625 -1.59375 9.46875 -1.832031 10.09375 -2.3125 C 10.726562 -2.800781 11.046875 -3.460938 11.046875 -4.296875 C 11.046875 -5.128906 10.753906 -5.773438 10.171875 -6.234375 C 9.585938 -6.691406 8.523438 -7.140625 6.984375 -7.578125 Z M 6.984375 -7.578125 "/></g></g><g transform="translate(111.047363, 29.276385)"><g><path d="M 4.5625 -15.703125 L 4.5625 -12.640625 L 6.9375 -12.640625 L 6.9375 -10.96875 L 4.5625 -10.96875 L 4.5625 -3.125 C 4.5625 -2.625 4.664062 -2.242188 4.875 -1.984375 C 5.09375 -1.734375 5.457031 -1.609375 5.96875 -1.609375 C 6.207031 -1.609375 6.546875 -1.65625 6.984375 -1.75 L 6.984375 0 C 6.421875 0.15625 5.867188 0.234375 5.328125 0.234375 C 4.359375 0.234375 3.628906 -0.0546875 3.140625 -0.640625 C 2.648438 -1.222656 2.40625 -2.050781 2.40625 -3.125 L 2.40625 -10.96875 L 0.109375 -10.96875 L 0.109375 -12.640625 L 2.40625 -12.640625 L 2.40625 -15.703125 Z M 4.5625 -15.703125 "/></g></g><g transform="translate(118.867001, 29.276385)"><g><path d="M 9.4375 0 C 9.3125 -0.25 9.210938 -0.691406 9.140625 -1.328125 C 8.128906 -0.285156 6.929688 0.234375 5.546875 0.234375 C 4.296875 0.234375 3.269531 -0.113281 2.46875 -0.8125 C 1.675781 -1.519531 1.28125 -2.414062 1.28125 -3.5 C 1.28125 -4.820312 1.78125 -5.847656 2.78125 -6.578125 C 3.78125 -7.304688 5.1875 -7.671875 7 -7.671875 L 9.109375 -7.671875 L 9.109375 -8.65625 C 9.109375 -9.414062 8.878906 -10.019531 8.421875 -10.46875 C 7.972656 -10.914062 7.304688 -11.140625 6.421875 -11.140625 C 5.648438 -11.140625 5.003906 -10.941406 4.484375 -10.546875 C 3.960938 -10.160156 3.703125 -9.691406 3.703125 -9.140625 L 1.53125 -9.140625 C 1.53125 -9.773438 1.753906 -10.382812 2.203125 -10.96875 C 2.648438 -11.5625 3.253906 -12.023438 4.015625 -12.359375 C 4.785156 -12.703125 5.632812 -12.875 6.5625 -12.875 C 8.019531 -12.875 9.160156 -12.507812 9.984375 -11.78125 C 10.804688 -11.050781 11.234375 -10.050781 11.265625 -8.78125 L 11.265625 -2.953125 C 11.265625 -1.796875 11.414062 -0.875 11.71875 -0.1875 L 11.71875 0 Z M 5.859375 -1.640625 C 6.535156 -1.640625 7.175781 -1.816406 7.78125 -2.171875 C 8.394531 -2.523438 8.835938 -2.984375 9.109375 -3.546875 L 9.109375 -6.140625 L 7.40625 -6.140625 C 4.757812 -6.140625 3.4375 -5.363281 3.4375 -3.8125 C 3.4375 -3.132812 3.660156 -2.601562 4.109375 -2.21875 C 4.566406 -1.832031 5.148438 -1.640625 5.859375 -1.640625 Z M 5.859375 -1.640625 "/></g></g><g transform="translate(131.888042, 29.276385)"><g><path d="M 7.75 -10.703125 C 7.425781 -10.753906 7.070312 -10.78125 6.6875 -10.78125 C 5.269531 -10.78125 4.304688 -10.179688 3.796875 -8.984375 L 3.796875 0 L 1.640625 0 L 1.640625 -12.640625 L 3.734375 -12.640625 L 3.78125 -11.1875 C 4.488281 -12.3125 5.492188 -12.875 6.796875 -12.875 C 7.210938 -12.875 7.53125 -12.820312 7.75 -12.71875 Z M 7.75 -10.703125 "/></g></g><g transform="translate(139.988204, 29.276385)"><g><path d="M 4.5625 -15.703125 L 4.5625 -12.640625 L 6.9375 -12.640625 L 6.9375 -10.96875 L 4.5625 -10.96875 L 4.5625 -3.125 C 4.5625 -2.625 4.664062 -2.242188 4.875 -1.984375 C 5.09375 -1.734375 5.457031 -1.609375 5.96875 -1.609375 C 6.207031 -1.609375 6.546875 -1.65625 6.984375 -1.75 L 6.984375 0 C 6.421875 0.15625 5.867188 0.234375 5.328125 0.234375 C 4.359375 0.234375 3.628906 -0.0546875 3.140625 -0.640625 C 2.648438 -1.222656 2.40625 -2.050781 2.40625 -3.125 L 2.40625 -10.96875 L 0.109375 -10.96875 L 0.109375 -12.640625 L 2.40625 -12.640625 L 2.40625 -15.703125 Z M 4.5625 -15.703125 "/></g></g><g transform="translate(147.807842, 29.276385)"><g><path d="M 6.890625 0.234375 C 5.171875 0.234375 3.773438 -0.328125 2.703125 -1.453125 C 1.628906 -2.578125 1.09375 -4.082031 1.09375 -5.96875 L 1.09375 -6.375 C 1.09375 -7.625 1.332031 -8.738281 1.8125 -9.71875 C 2.289062 -10.707031 2.957031 -11.476562 3.8125 -12.03125 C 4.675781 -12.59375 5.609375 -12.875 6.609375 -12.875 C 8.253906 -12.875 9.53125 -12.332031 10.4375 -11.25 C 11.351562 -10.164062 11.8125 -8.617188 11.8125 -6.609375 L 11.8125 -5.703125 L 3.25 -5.703125 C 3.28125 -4.453125 3.644531 -3.441406 4.34375 -2.671875 C 5.039062 -1.910156 5.925781 -1.53125 7 -1.53125 C 7.757812 -1.53125 8.40625 -1.6875 8.9375 -2 C 9.46875 -2.3125 9.929688 -2.722656 10.328125 -3.234375 L 11.65625 -2.203125 C 10.59375 -0.578125 9.003906 0.234375 6.890625 0.234375 Z M 6.609375 -11.109375 C 5.742188 -11.109375 5.015625 -10.789062 4.421875 -10.15625 C 3.828125 -9.519531 3.457031 -8.628906 3.3125 -7.484375 L 9.65625 -7.484375 L 9.65625 -7.640625 C 9.59375 -8.742188 9.296875 -9.597656 8.765625 -10.203125 C 8.234375 -10.804688 7.515625 -11.109375 6.609375 -11.109375 Z M 6.609375 -11.109375 "/></g></g><g transform="translate(160.489915, 29.276385)"><g><path d="M 1.109375 -6.421875 C 1.109375 -8.367188 1.566406 -9.929688 2.484375 -11.109375 C 3.410156 -12.285156 4.613281 -12.875 6.09375 -12.875 C 7.582031 -12.875 8.757812 -12.367188 9.625 -11.359375 L 9.625 -17.953125 L 11.78125 -17.953125 L 11.78125 0 L 9.796875 0 L 9.6875 -1.359375 C 8.820312 -0.296875 7.617188 0.234375 6.078125 0.234375 C 4.609375 0.234375 3.410156 -0.363281 2.484375 -1.5625 C 1.566406 -2.757812 1.109375 -4.328125 1.109375 -6.265625 Z M 3.265625 -6.1875 C 3.265625 -4.75 3.5625 -3.625 4.15625 -2.8125 C 4.75 -2 5.566406 -1.59375 6.609375 -1.59375 C 7.984375 -1.59375 8.988281 -2.210938 9.625 -3.453125 L 9.625 -9.25 C 8.976562 -10.445312 7.984375 -11.046875 6.640625 -11.046875 C 5.578125 -11.046875 4.75 -10.632812 4.15625 -9.8125 C 3.5625 -9 3.265625 -7.789062 3.265625 -6.1875 Z M 3.265625 -6.1875 "/></g></g></g></svg>