<svg xmlns="http://www.w3.org/2000/svg" xmlns:xlink="http://www.w3.org/1999/xlink" width="412" zoomAndPan="magnify" viewBox="0 0 309 116.249996" height="155" preserveAspectRatio="xMidYMid meet" version="1.0"><defs><g/><clipPath id="512322d705"><path d="M 25.46875 107 L 33 107 L 33 115.503906 L 25.46875 115.503906 Z M 25.46875 107 " clip-rule="nonzero"/></clipPath><clipPath id="8ee314f10d"><path d="M 25.46875 102 L 51.550781 102 L 51.550781 113 L 25.46875 113 Z M 25.46875 102 " clip-rule="nonzero"/></clipPath><clipPath id="1c119a78cc"><path d="M 26 87.386719 L 51 87.386719 L 51 102 L 26 102 Z M 26 87.386719 " clip-rule="nonzero"/></clipPath></defs><g clip-path="url(#512322d705)"><path fill="#ffffff" d="M 25.464844 109.355469 L 28.652344 107.453125 L 32.179688 113.367188 L 28.992188 115.269531 Z M 25.464844 109.355469 " fill-opacity="1" fill-rule="nonzero"/></g><g clip-path="url(#8ee314f10d)"><path fill="#ffffff" d="M 25.46875 102.347656 L 25.46875 103.238281 C 25.46875 103.382812 25.574219 103.488281 25.71875 103.488281 L 31.964844 103.488281 L 32.070312 105.773438 C 31.964844 106.308594 29.609375 108.058594 29.609375 108.058594 L 32.214844 112.449219 L 35.246094 110.664062 C 35.78125 110.234375 36.53125 110.34375 36.53125 110.34375 C 40.636719 110.558594 44.457031 103.527344 44.457031 103.527344 L 51.417969 103.527344 C 51.558594 103.527344 51.667969 103.417969 51.667969 103.277344 L 51.667969 102.382812 C 51.667969 102.242188 51.558594 102.132812 51.417969 102.132812 L 25.71875 102.132812 C 25.574219 102.097656 25.46875 102.203125 25.46875 102.347656 Z M 33.960938 103.488281 L 42.457031 103.488281 C 41.207031 105.917969 36.28125 106.09375 36.28125 106.09375 C 34.785156 105.808594 33.960938 103.488281 33.960938 103.488281 Z M 33.960938 103.488281 " fill-opacity="1" fill-rule="nonzero"/></g><g clip-path="url(#1c119a78cc)"><path fill="#ffffff" d="M 37.175781 88.964844 L 37.175781 87.75 C 37.175781 87.605469 37.28125 87.5 37.425781 87.5 L 39.710938 87.5 C 39.851562 87.5 39.960938 87.605469 39.960938 87.75 L 39.960938 88.964844 C 46.132812 89.640625 50.953125 94.886719 50.953125 101.277344 L 26.183594 101.277344 C 26.183594 94.886719 31 89.640625 37.175781 88.964844 Z M 37.175781 88.964844 " fill-opacity="1" fill-rule="nonzero"/></g><g fill="#ffffff" fill-opacity="1"><g transform="translate(17.476271, 80.44419)"><g><path d="M 49.609375 -35.640625 C 53.921875 -35.640625 57.359375 -34.34375 59.921875 -31.75 C 62.492188 -29.164062 63.78125 -25.265625 63.78125 -20.046875 L 63.78125 0 L 51.484375 0 L 51.484375 -18.046875 C 51.484375 -20.503906 51.019531 -22.316406 50.09375 -23.484375 C 49.164062 -24.648438 47.863281 -25.234375 46.1875 -25.234375 C 44.332031 -25.234375 42.84375 -24.582031 41.71875 -23.28125 C 40.601562 -21.988281 40.046875 -20.03125 40.046875 -17.40625 L 40.046875 0 L 27.75 0 L 27.75 -18.046875 C 27.75 -22.835938 25.984375 -25.234375 22.453125 -25.234375 C 20.546875 -25.234375 19.03125 -24.582031 17.90625 -23.28125 C 16.789062 -21.988281 16.234375 -20.03125 16.234375 -17.40625 L 16.234375 0 L 3.953125 0 L 3.953125 -35.0625 L 15.65625 -35.0625 L 15.65625 -31.375 C 16.945312 -32.800781 18.488281 -33.867188 20.28125 -34.578125 C 22.070312 -35.285156 24.023438 -35.640625 26.140625 -35.640625 C 28.597656 -35.640625 30.796875 -35.1875 32.734375 -34.28125 C 34.671875 -33.375 36.242188 -31.992188 37.453125 -30.140625 C 38.835938 -31.910156 40.582031 -33.269531 42.6875 -34.21875 C 44.800781 -35.164062 47.109375 -35.640625 49.609375 -35.640625 Z M 49.609375 -35.640625 "/></g></g></g><g fill="#ffffff" fill-opacity="1"><g transform="translate(80.150554, 80.44419)"><g><path d="M 39.78125 -17.46875 C 39.78125 -17.382812 39.71875 -16.367188 39.59375 -14.421875 L 14.109375 -14.421875 C 14.617188 -12.609375 15.617188 -11.21875 17.109375 -10.25 C 18.597656 -9.28125 20.460938 -8.796875 22.703125 -8.796875 C 24.390625 -8.796875 25.847656 -9.03125 27.078125 -9.5 C 28.304688 -9.976562 29.546875 -10.757812 30.796875 -11.84375 L 37.265625 -5.109375 C 33.859375 -1.316406 28.875 0.578125 22.3125 0.578125 C 18.21875 0.578125 14.617188 -0.195312 11.515625 -1.75 C 8.410156 -3.300781 6.003906 -5.457031 4.296875 -8.21875 C 2.597656 -10.976562 1.75 -14.101562 1.75 -17.59375 C 1.75 -21.039062 2.578125 -24.132812 4.234375 -26.875 C 5.898438 -29.613281 8.195312 -31.757812 11.125 -33.3125 C 14.0625 -34.863281 17.359375 -35.640625 21.015625 -35.640625 C 24.515625 -35.640625 27.6875 -34.914062 30.53125 -33.46875 C 33.375 -32.03125 35.625 -29.941406 37.28125 -27.203125 C 38.945312 -24.460938 39.78125 -21.21875 39.78125 -17.46875 Z M 21.09375 -26.90625 C 19.1875 -26.90625 17.597656 -26.363281 16.328125 -25.28125 C 15.054688 -24.207031 14.25 -22.742188 13.90625 -20.890625 L 28.265625 -20.890625 C 27.921875 -22.742188 27.113281 -24.207031 25.84375 -25.28125 C 24.570312 -26.363281 22.988281 -26.90625 21.09375 -26.90625 Z M 21.09375 -26.90625 "/></g></g></g><g fill="#ffffff" fill-opacity="1"><g transform="translate(116.758686, 80.44419)"><g><path d="M 26.78125 -35.640625 C 31.132812 -35.640625 34.632812 -34.34375 37.28125 -31.75 C 39.9375 -29.164062 41.265625 -25.265625 41.265625 -20.046875 L 41.265625 0 L 28.984375 0 L 28.984375 -18.046875 C 28.984375 -22.835938 27.0625 -25.234375 23.21875 -25.234375 C 21.101562 -25.234375 19.410156 -24.539062 18.140625 -23.15625 C 16.867188 -21.78125 16.234375 -19.710938 16.234375 -16.953125 L 16.234375 0 L 3.953125 0 L 3.953125 -35.0625 L 15.65625 -35.0625 L 15.65625 -31.25 C 17.03125 -32.664062 18.664062 -33.75 20.5625 -34.5 C 22.46875 -35.257812 24.539062 -35.640625 26.78125 -35.640625 Z M 26.78125 -35.640625 "/></g></g></g><g fill="#ffffff" fill-opacity="1"><g transform="translate(156.859561, 80.44419)"><g><path d="M 40.8125 -35.0625 L 40.8125 0 L 29.109375 0 L 29.109375 -3.75 C 27.816406 -2.320312 26.265625 -1.242188 24.453125 -0.515625 C 22.640625 0.210938 20.71875 0.578125 18.6875 0.578125 C 14.164062 0.578125 10.554688 -0.753906 7.859375 -3.421875 C 5.160156 -6.097656 3.8125 -10.109375 3.8125 -15.453125 L 3.8125 -35.0625 L 16.109375 -35.0625 L 16.109375 -17.46875 C 16.109375 -14.832031 16.601562 -12.910156 17.59375 -11.703125 C 18.582031 -10.492188 20.023438 -9.890625 21.921875 -9.890625 C 23.867188 -9.890625 25.457031 -10.566406 26.6875 -11.921875 C 27.914062 -13.285156 28.53125 -15.367188 28.53125 -18.171875 L 28.53125 -35.0625 Z M 40.8125 -35.0625 "/></g></g></g><g fill="#ffffff" fill-opacity="1"><g transform="translate(196.701694, 80.44419)"><g><path d="M 26.78125 -35.640625 C 31.132812 -35.640625 34.632812 -34.34375 37.28125 -31.75 C 39.9375 -29.164062 41.265625 -25.265625 41.265625 -20.046875 L 41.265625 0 L 28.984375 0 L 28.984375 -18.046875 C 28.984375 -22.835938 27.0625 -25.234375 23.21875 -25.234375 C 21.101562 -25.234375 19.410156 -24.539062 18.140625 -23.15625 C 16.867188 -21.78125 16.234375 -19.710938 16.234375 -16.953125 L 16.234375 0 L 3.953125 0 L 3.953125 -35.0625 L 15.65625 -35.0625 L 15.65625 -31.25 C 17.03125 -32.664062 18.664062 -33.75 20.5625 -34.5 C 22.46875 -35.257812 24.539062 -35.640625 26.78125 -35.640625 Z M 26.78125 -35.640625 "/></g></g></g><g fill="#ffffff" fill-opacity="1"><g transform="translate(236.802557, 80.44419)"><g><path d="M 27.359375 0.90625 C 22.578125 0.90625 18.273438 -0.101562 14.453125 -2.125 C 10.640625 -4.15625 7.644531 -6.957031 5.46875 -10.53125 C 3.289062 -14.113281 2.203125 -18.148438 2.203125 -22.640625 C 2.203125 -27.128906 3.289062 -31.160156 5.46875 -34.734375 C 7.644531 -38.316406 10.640625 -41.117188 14.453125 -43.140625 C 18.273438 -45.171875 22.578125 -46.1875 27.359375 -46.1875 C 32.148438 -46.1875 36.453125 -45.171875 40.265625 -43.140625 C 44.085938 -41.117188 47.085938 -38.316406 49.265625 -34.734375 C 51.441406 -31.160156 52.53125 -27.128906 52.53125 -22.640625 C 52.53125 -18.148438 51.441406 -14.113281 49.265625 -10.53125 C 47.085938 -6.957031 44.085938 -4.15625 40.265625 -2.125 C 36.453125 -0.101562 32.148438 0.90625 27.359375 0.90625 Z M 27.359375 -9.703125 C 29.648438 -9.703125 31.722656 -10.238281 33.578125 -11.3125 C 35.429688 -12.394531 36.894531 -13.914062 37.96875 -15.875 C 39.050781 -17.84375 39.59375 -20.097656 39.59375 -22.640625 C 39.59375 -25.179688 39.050781 -27.429688 37.96875 -29.390625 C 36.894531 -31.359375 35.429688 -32.878906 33.578125 -33.953125 C 31.722656 -35.035156 29.648438 -35.578125 27.359375 -35.578125 C 25.078125 -35.578125 23.007812 -35.035156 21.15625 -33.953125 C 19.300781 -32.878906 17.832031 -31.359375 16.75 -29.390625 C 15.675781 -27.429688 15.140625 -25.179688 15.140625 -22.640625 C 15.140625 -20.097656 15.675781 -17.84375 16.75 -15.875 C 17.832031 -13.914062 19.300781 -12.394531 21.15625 -11.3125 C 23.007812 -10.238281 25.078125 -9.703125 27.359375 -9.703125 Z M 27.359375 -9.703125 "/></g></g></g><g fill="#ffffff" fill-opacity="1"><g transform="translate(56.170737, 102.56551)"><g><path d="M 0.796875 -4.8125 C 0.796875 -5.738281 0.976562 -6.566406 1.34375 -7.296875 C 1.707031 -8.035156 2.210938 -8.609375 2.859375 -9.015625 C 3.503906 -9.421875 4.242188 -9.625 5.078125 -9.625 C 6.367188 -9.625 7.410156 -9.175781 8.203125 -8.28125 C 8.992188 -7.394531 9.390625 -6.210938 9.390625 -4.734375 L 9.390625 -4.609375 C 9.390625 -3.691406 9.210938 -2.867188 8.859375 -2.140625 C 8.503906 -1.410156 8 -0.84375 7.34375 -0.4375 C 6.695312 -0.03125 5.945312 0.171875 5.09375 0.171875 C 3.8125 0.171875 2.773438 -0.269531 1.984375 -1.15625 C 1.191406 -2.050781 0.796875 -3.234375 0.796875 -4.703125 Z M 2.421875 -4.609375 C 2.421875 -3.566406 2.660156 -2.726562 3.140625 -2.09375 C 3.628906 -1.457031 4.28125 -1.140625 5.09375 -1.140625 C 5.914062 -1.140625 6.566406 -1.460938 7.046875 -2.109375 C 7.535156 -2.753906 7.78125 -3.65625 7.78125 -4.8125 C 7.78125 -5.84375 7.53125 -6.679688 7.03125 -7.328125 C 6.539062 -7.972656 5.890625 -8.296875 5.078125 -8.296875 C 4.285156 -8.296875 3.644531 -7.976562 3.15625 -7.34375 C 2.664062 -6.707031 2.421875 -5.796875 2.421875 -4.609375 Z M 2.421875 -4.609375 "/></g></g></g><g fill="#ffffff" fill-opacity="1"><g transform="translate(66.363916, 102.56551)"><g><path d="M 2.75 -9.4375 L 2.796875 -8.25 C 3.523438 -9.164062 4.46875 -9.625 5.625 -9.625 C 7.625 -9.625 8.632812 -8.492188 8.65625 -6.234375 L 8.65625 0 L 7.03125 0 L 7.03125 -6.25 C 7.03125 -6.925781 6.875 -7.425781 6.5625 -7.75 C 6.257812 -8.082031 5.785156 -8.25 5.140625 -8.25 C 4.617188 -8.25 4.160156 -8.109375 3.765625 -7.828125 C 3.367188 -7.546875 3.0625 -7.179688 2.84375 -6.734375 L 2.84375 0 L 1.21875 0 L 1.21875 -9.4375 Z M 2.75 -9.4375 "/></g></g></g><g fill="#ffffff" fill-opacity="1"><g transform="translate(76.225467, 102.56551)"><g><path d="M 2.96875 0 L 1.359375 0 L 1.359375 -13.40625 L 2.96875 -13.40625 Z M 2.96875 0 "/></g></g></g><g fill="#ffffff" fill-opacity="1"><g transform="translate(80.56281, 102.56551)"><g><path d="M 4.3125 -2.359375 L 6.515625 -9.4375 L 8.234375 -9.4375 L 4.4375 1.453125 C 3.851562 3.023438 2.921875 3.8125 1.640625 3.8125 L 1.328125 3.78125 L 0.734375 3.671875 L 0.734375 2.359375 L 1.171875 2.40625 C 1.710938 2.40625 2.132812 2.289062 2.4375 2.0625 C 2.75 1.84375 3.003906 1.441406 3.203125 0.859375 L 3.5625 -0.109375 L 0.1875 -9.4375 L 1.953125 -9.4375 Z M 4.3125 -2.359375 "/></g></g></g><g fill="#ffffff" fill-opacity="1"><g transform="translate(89.019314, 102.56551)"><g/></g></g><g fill="#ffffff" fill-opacity="1"><g transform="translate(93.443927, 102.56551)"><g><path d="M 2.734375 -9.4375 L 2.78125 -8.390625 C 3.476562 -9.210938 4.414062 -9.625 5.59375 -9.625 C 6.90625 -9.625 7.800781 -9.113281 8.28125 -8.09375 C 8.59375 -8.550781 9 -8.921875 9.5 -9.203125 C 10.007812 -9.484375 10.609375 -9.625 11.296875 -9.625 C 13.367188 -9.625 14.421875 -8.523438 14.453125 -6.328125 L 14.453125 0 L 12.84375 0 L 12.84375 -6.234375 C 12.84375 -6.910156 12.6875 -7.414062 12.375 -7.75 C 12.0625 -8.082031 11.546875 -8.25 10.828125 -8.25 C 10.222656 -8.25 9.722656 -8.066406 9.328125 -7.703125 C 8.929688 -7.347656 8.703125 -6.867188 8.640625 -6.265625 L 8.640625 0 L 7.015625 0 L 7.015625 -6.1875 C 7.015625 -7.5625 6.34375 -8.25 5 -8.25 C 3.9375 -8.25 3.210938 -7.796875 2.828125 -6.890625 L 2.828125 0 L 1.21875 0 L 1.21875 -9.4375 Z M 2.734375 -9.4375 "/></g></g></g><g fill="#ffffff" fill-opacity="1"><g transform="translate(109.108963, 102.56551)"><g><path d="M 5.140625 0.171875 C 3.859375 0.171875 2.816406 -0.242188 2.015625 -1.078125 C 1.210938 -1.921875 0.8125 -3.046875 0.8125 -4.453125 L 0.8125 -4.75 C 0.8125 -5.6875 0.988281 -6.523438 1.34375 -7.265625 C 1.707031 -8.003906 2.207031 -8.582031 2.84375 -9 C 3.488281 -9.414062 4.1875 -9.625 4.9375 -9.625 C 6.164062 -9.625 7.117188 -9.21875 7.796875 -8.40625 C 8.484375 -7.59375 8.828125 -6.4375 8.828125 -4.9375 L 8.828125 -4.265625 L 2.421875 -4.265625 C 2.453125 -3.328125 2.726562 -2.570312 3.25 -2 C 3.769531 -1.425781 4.429688 -1.140625 5.234375 -1.140625 C 5.796875 -1.140625 6.273438 -1.253906 6.671875 -1.484375 C 7.066406 -1.722656 7.414062 -2.035156 7.71875 -2.421875 L 8.703125 -1.65625 C 7.910156 -0.4375 6.722656 0.171875 5.140625 0.171875 Z M 4.9375 -8.296875 C 4.289062 -8.296875 3.742188 -8.054688 3.296875 -7.578125 C 2.859375 -7.109375 2.585938 -6.445312 2.484375 -5.59375 L 7.203125 -5.59375 L 7.203125 -5.703125 C 7.160156 -6.523438 6.941406 -7.160156 6.546875 -7.609375 C 6.148438 -8.066406 5.613281 -8.296875 4.9375 -8.296875 Z M 4.9375 -8.296875 "/></g></g></g><g fill="#ffffff" fill-opacity="1"><g transform="translate(118.577803, 102.56551)"><g><path d="M 2.75 -9.4375 L 2.796875 -8.25 C 3.523438 -9.164062 4.46875 -9.625 5.625 -9.625 C 7.625 -9.625 8.632812 -8.492188 8.65625 -6.234375 L 8.65625 0 L 7.03125 0 L 7.03125 -6.25 C 7.03125 -6.925781 6.875 -7.425781 6.5625 -7.75 C 6.257812 -8.082031 5.785156 -8.25 5.140625 -8.25 C 4.617188 -8.25 4.160156 -8.109375 3.765625 -7.828125 C 3.367188 -7.546875 3.0625 -7.179688 2.84375 -6.734375 L 2.84375 0 L 1.21875 0 L 1.21875 -9.4375 Z M 2.75 -9.4375 "/></g></g></g><g fill="#ffffff" fill-opacity="1"><g transform="translate(128.439354, 102.56551)"><g><path d="M 7.046875 -0.9375 C 6.421875 -0.195312 5.5 0.171875 4.28125 0.171875 C 3.28125 0.171875 2.515625 -0.117188 1.984375 -0.703125 C 1.460938 -1.285156 1.195312 -2.148438 1.1875 -3.296875 L 1.1875 -9.4375 L 2.796875 -9.4375 L 2.796875 -3.34375 C 2.796875 -1.914062 3.378906 -1.203125 4.546875 -1.203125 C 5.773438 -1.203125 6.597656 -1.660156 7.015625 -2.578125 L 7.015625 -9.4375 L 8.625 -9.4375 L 8.625 0 L 7.09375 0 Z M 7.046875 -0.9375 "/></g></g></g><g fill="#ffffff" fill-opacity="1"><g transform="translate(138.292184, 102.56551)"><g/></g></g><g fill="#ffffff" fill-opacity="1"><g transform="translate(142.716797, 102.56551)"><g><path d="M 4.3125 -2.359375 L 6.515625 -9.4375 L 8.234375 -9.4375 L 4.4375 1.453125 C 3.851562 3.023438 2.921875 3.8125 1.640625 3.8125 L 1.328125 3.78125 L 0.734375 3.671875 L 0.734375 2.359375 L 1.171875 2.40625 C 1.710938 2.40625 2.132812 2.289062 2.4375 2.0625 C 2.75 1.84375 3.003906 1.441406 3.203125 0.859375 L 3.5625 -0.109375 L 0.1875 -9.4375 L 1.953125 -9.4375 Z M 4.3125 -2.359375 "/></g></g></g><g fill="#ffffff" fill-opacity="1"><g transform="translate(151.173301, 102.56551)"><g><path d="M 0.796875 -4.8125 C 0.796875 -5.738281 0.976562 -6.566406 1.34375 -7.296875 C 1.707031 -8.035156 2.210938 -8.609375 2.859375 -9.015625 C 3.503906 -9.421875 4.242188 -9.625 5.078125 -9.625 C 6.367188 -9.625 7.410156 -9.175781 8.203125 -8.28125 C 8.992188 -7.394531 9.390625 -6.210938 9.390625 -4.734375 L 9.390625 -4.609375 C 9.390625 -3.691406 9.210938 -2.867188 8.859375 -2.140625 C 8.503906 -1.410156 8 -0.84375 7.34375 -0.4375 C 6.695312 -0.03125 5.945312 0.171875 5.09375 0.171875 C 3.8125 0.171875 2.773438 -0.269531 1.984375 -1.15625 C 1.191406 -2.050781 0.796875 -3.234375 0.796875 -4.703125 Z M 2.421875 -4.609375 C 2.421875 -3.566406 2.660156 -2.726562 3.140625 -2.09375 C 3.628906 -1.457031 4.28125 -1.140625 5.09375 -1.140625 C 5.914062 -1.140625 6.566406 -1.460938 7.046875 -2.109375 C 7.535156 -2.753906 7.78125 -3.65625 7.78125 -4.8125 C 7.78125 -5.84375 7.53125 -6.679688 7.03125 -7.328125 C 6.539062 -7.972656 5.890625 -8.296875 5.078125 -8.296875 C 4.285156 -8.296875 3.644531 -7.976562 3.15625 -7.34375 C 2.664062 -6.707031 2.421875 -5.796875 2.421875 -4.609375 Z M 2.421875 -4.609375 "/></g></g></g><g fill="#ffffff" fill-opacity="1"><g transform="translate(161.366479, 102.56551)"><g><path d="M 7.046875 -0.9375 C 6.421875 -0.195312 5.5 0.171875 4.28125 0.171875 C 3.28125 0.171875 2.515625 -0.117188 1.984375 -0.703125 C 1.460938 -1.285156 1.195312 -2.148438 1.1875 -3.296875 L 1.1875 -9.4375 L 2.796875 -9.4375 L 2.796875 -3.34375 C 2.796875 -1.914062 3.378906 -1.203125 4.546875 -1.203125 C 5.773438 -1.203125 6.597656 -1.660156 7.015625 -2.578125 L 7.015625 -9.4375 L 8.625 -9.4375 L 8.625 0 L 7.09375 0 Z M 7.046875 -0.9375 "/></g></g></g><g fill="#ffffff" fill-opacity="1"><g transform="translate(171.219309, 102.56551)"><g/></g></g><g fill="#ffffff" fill-opacity="1"><g transform="translate(175.643922, 102.56551)"><g><path d="M 9.578125 -2.21875 L 11.40625 -9.4375 L 13.015625 -9.4375 L 10.265625 0 L 8.953125 0 L 6.65625 -7.15625 L 4.421875 0 L 3.109375 0 L 0.375 -9.4375 L 1.984375 -9.4375 L 3.84375 -2.375 L 6.046875 -9.4375 L 7.34375 -9.4375 Z M 9.578125 -2.21875 "/></g></g></g><g fill="#ffffff" fill-opacity="1"><g transform="translate(189.074837, 102.56551)"><g><path d="M 2.96875 0 L 1.359375 0 L 1.359375 -9.4375 L 2.96875 -9.4375 Z M 1.234375 -11.953125 C 1.234375 -12.210938 1.3125 -12.429688 1.46875 -12.609375 C 1.625 -12.785156 1.859375 -12.875 2.171875 -12.875 C 2.492188 -12.875 2.734375 -12.785156 2.890625 -12.609375 C 3.054688 -12.429688 3.140625 -12.210938 3.140625 -11.953125 C 3.140625 -11.691406 3.054688 -11.472656 2.890625 -11.296875 C 2.734375 -11.117188 2.492188 -11.03125 2.171875 -11.03125 C 1.859375 -11.03125 1.625 -11.117188 1.46875 -11.296875 C 1.3125 -11.472656 1.234375 -11.691406 1.234375 -11.953125 Z M 1.234375 -11.953125 "/></g></g></g><g fill="#ffffff" fill-opacity="1"><g transform="translate(193.412179, 102.56551)"><g><path d="M 2.96875 0 L 1.359375 0 L 1.359375 -13.40625 L 2.96875 -13.40625 Z M 2.96875 0 "/></g></g></g><g fill="#ffffff" fill-opacity="1"><g transform="translate(197.749522, 102.56551)"><g><path d="M 2.96875 0 L 1.359375 0 L 1.359375 -13.40625 L 2.96875 -13.40625 Z M 2.96875 0 "/></g></g></g><g fill="#ffffff" fill-opacity="1"><g transform="translate(202.086865, 102.56551)"><g/></g></g><g fill="#ffffff" fill-opacity="1"><g transform="translate(206.511478, 102.56551)"><g><path d="M 5.140625 0.171875 C 3.859375 0.171875 2.816406 -0.242188 2.015625 -1.078125 C 1.210938 -1.921875 0.8125 -3.046875 0.8125 -4.453125 L 0.8125 -4.75 C 0.8125 -5.6875 0.988281 -6.523438 1.34375 -7.265625 C 1.707031 -8.003906 2.207031 -8.582031 2.84375 -9 C 3.488281 -9.414062 4.1875 -9.625 4.9375 -9.625 C 6.164062 -9.625 7.117188 -9.21875 7.796875 -8.40625 C 8.484375 -7.59375 8.828125 -6.4375 8.828125 -4.9375 L 8.828125 -4.265625 L 2.421875 -4.265625 C 2.453125 -3.328125 2.726562 -2.570312 3.25 -2 C 3.769531 -1.425781 4.429688 -1.140625 5.234375 -1.140625 C 5.796875 -1.140625 6.273438 -1.253906 6.671875 -1.484375 C 7.066406 -1.722656 7.414062 -2.035156 7.71875 -2.421875 L 8.703125 -1.65625 C 7.910156 -0.4375 6.722656 0.171875 5.140625 0.171875 Z M 4.9375 -8.296875 C 4.289062 -8.296875 3.742188 -8.054688 3.296875 -7.578125 C 2.859375 -7.109375 2.585938 -6.445312 2.484375 -5.59375 L 7.203125 -5.59375 L 7.203125 -5.703125 C 7.160156 -6.523438 6.941406 -7.160156 6.546875 -7.609375 C 6.148438 -8.066406 5.613281 -8.296875 4.9375 -8.296875 Z M 4.9375 -8.296875 "/></g></g></g><g fill="#ffffff" fill-opacity="1"><g transform="translate(215.980318, 102.56551)"><g><path d="M 4.34375 -2.1875 L 6.671875 -9.4375 L 8.328125 -9.4375 L 4.9375 0 L 3.703125 0 L 0.28125 -9.4375 L 1.9375 -9.4375 Z M 4.34375 -2.1875 "/></g></g></g><g fill="#ffffff" fill-opacity="1"><g transform="translate(224.637538, 102.56551)"><g><path d="M 5.140625 0.171875 C 3.859375 0.171875 2.816406 -0.242188 2.015625 -1.078125 C 1.210938 -1.921875 0.8125 -3.046875 0.8125 -4.453125 L 0.8125 -4.75 C 0.8125 -5.6875 0.988281 -6.523438 1.34375 -7.265625 C 1.707031 -8.003906 2.207031 -8.582031 2.84375 -9 C 3.488281 -9.414062 4.1875 -9.625 4.9375 -9.625 C 6.164062 -9.625 7.117188 -9.21875 7.796875 -8.40625 C 8.484375 -7.59375 8.828125 -6.4375 8.828125 -4.9375 L 8.828125 -4.265625 L 2.421875 -4.265625 C 2.453125 -3.328125 2.726562 -2.570312 3.25 -2 C 3.769531 -1.425781 4.429688 -1.140625 5.234375 -1.140625 C 5.796875 -1.140625 6.273438 -1.253906 6.671875 -1.484375 C 7.066406 -1.722656 7.414062 -2.035156 7.71875 -2.421875 L 8.703125 -1.65625 C 7.910156 -0.4375 6.722656 0.171875 5.140625 0.171875 Z M 4.9375 -8.296875 C 4.289062 -8.296875 3.742188 -8.054688 3.296875 -7.578125 C 2.859375 -7.109375 2.585938 -6.445312 2.484375 -5.59375 L 7.203125 -5.59375 L 7.203125 -5.703125 C 7.160156 -6.523438 6.941406 -7.160156 6.546875 -7.609375 C 6.148438 -8.066406 5.613281 -8.296875 4.9375 -8.296875 Z M 4.9375 -8.296875 "/></g></g></g><g fill="#ffffff" fill-opacity="1"><g transform="translate(234.106378, 102.56551)"><g><path d="M 5.78125 -8 C 5.539062 -8.039062 5.28125 -8.0625 5 -8.0625 C 3.9375 -8.0625 3.21875 -7.609375 2.84375 -6.703125 L 2.84375 0 L 1.21875 0 L 1.21875 -9.4375 L 2.796875 -9.4375 L 2.8125 -8.359375 C 3.34375 -9.203125 4.097656 -9.625 5.078125 -9.625 C 5.390625 -9.625 5.625 -9.582031 5.78125 -9.5 Z M 5.78125 -8 "/></g></g></g><g fill="#ffffff" fill-opacity="1"><g transform="translate(240.15422, 102.56551)"><g/></g></g><g fill="#ffffff" fill-opacity="1"><g transform="translate(244.578833, 102.56551)"><g><path d="M 2.75 -9.4375 L 2.796875 -8.25 C 3.523438 -9.164062 4.46875 -9.625 5.625 -9.625 C 7.625 -9.625 8.632812 -8.492188 8.65625 -6.234375 L 8.65625 0 L 7.03125 0 L 7.03125 -6.25 C 7.03125 -6.925781 6.875 -7.425781 6.5625 -7.75 C 6.257812 -8.082031 5.785156 -8.25 5.140625 -8.25 C 4.617188 -8.25 4.160156 -8.109375 3.765625 -7.828125 C 3.367188 -7.546875 3.0625 -7.179688 2.84375 -6.734375 L 2.84375 0 L 1.21875 0 L 1.21875 -9.4375 Z M 2.75 -9.4375 "/></g></g></g><g fill="#ffffff" fill-opacity="1"><g transform="translate(254.440384, 102.56551)"><g><path d="M 5.140625 0.171875 C 3.859375 0.171875 2.816406 -0.242188 2.015625 -1.078125 C 1.210938 -1.921875 0.8125 -3.046875 0.8125 -4.453125 L 0.8125 -4.75 C 0.8125 -5.6875 0.988281 -6.523438 1.34375 -7.265625 C 1.707031 -8.003906 2.207031 -8.582031 2.84375 -9 C 3.488281 -9.414062 4.1875 -9.625 4.9375 -9.625 C 6.164062 -9.625 7.117188 -9.21875 7.796875 -8.40625 C 8.484375 -7.59375 8.828125 -6.4375 8.828125 -4.9375 L 8.828125 -4.265625 L 2.421875 -4.265625 C 2.453125 -3.328125 2.726562 -2.570312 3.25 -2 C 3.769531 -1.425781 4.429688 -1.140625 5.234375 -1.140625 C 5.796875 -1.140625 6.273438 -1.253906 6.671875 -1.484375 C 7.066406 -1.722656 7.414062 -2.035156 7.71875 -2.421875 L 8.703125 -1.65625 C 7.910156 -0.4375 6.722656 0.171875 5.140625 0.171875 Z M 4.9375 -8.296875 C 4.289062 -8.296875 3.742188 -8.054688 3.296875 -7.578125 C 2.859375 -7.109375 2.585938 -6.445312 2.484375 -5.59375 L 7.203125 -5.59375 L 7.203125 -5.703125 C 7.160156 -6.523438 6.941406 -7.160156 6.546875 -7.609375 C 6.148438 -8.066406 5.613281 -8.296875 4.9375 -8.296875 Z M 4.9375 -8.296875 "/></g></g></g><g fill="#ffffff" fill-opacity="1"><g transform="translate(263.909225, 102.56551)"><g><path d="M 5.140625 0.171875 C 3.859375 0.171875 2.816406 -0.242188 2.015625 -1.078125 C 1.210938 -1.921875 0.8125 -3.046875 0.8125 -4.453125 L 0.8125 -4.75 C 0.8125 -5.6875 0.988281 -6.523438 1.34375 -7.265625 C 1.707031 -8.003906 2.207031 -8.582031 2.84375 -9 C 3.488281 -9.414062 4.1875 -9.625 4.9375 -9.625 C 6.164062 -9.625 7.117188 -9.21875 7.796875 -8.40625 C 8.484375 -7.59375 8.828125 -6.4375 8.828125 -4.9375 L 8.828125 -4.265625 L 2.421875 -4.265625 C 2.453125 -3.328125 2.726562 -2.570312 3.25 -2 C 3.769531 -1.425781 4.429688 -1.140625 5.234375 -1.140625 C 5.796875 -1.140625 6.273438 -1.253906 6.671875 -1.484375 C 7.066406 -1.722656 7.414062 -2.035156 7.71875 -2.421875 L 8.703125 -1.65625 C 7.910156 -0.4375 6.722656 0.171875 5.140625 0.171875 Z M 4.9375 -8.296875 C 4.289062 -8.296875 3.742188 -8.054688 3.296875 -7.578125 C 2.859375 -7.109375 2.585938 -6.445312 2.484375 -5.59375 L 7.203125 -5.59375 L 7.203125 -5.703125 C 7.160156 -6.523438 6.941406 -7.160156 6.546875 -7.609375 C 6.148438 -8.066406 5.613281 -8.296875 4.9375 -8.296875 Z M 4.9375 -8.296875 "/></g></g></g><g fill="#ffffff" fill-opacity="1"><g transform="translate(273.378065, 102.56551)"><g><path d="M 0.828125 -4.796875 C 0.828125 -6.242188 1.171875 -7.410156 1.859375 -8.296875 C 2.546875 -9.179688 3.445312 -9.625 4.5625 -9.625 C 5.664062 -9.625 6.539062 -9.242188 7.1875 -8.484375 L 7.1875 -13.40625 L 8.796875 -13.40625 L 8.796875 0 L 7.3125 0 L 7.234375 -1.015625 C 6.585938 -0.222656 5.6875 0.171875 4.53125 0.171875 C 3.4375 0.171875 2.546875 -0.273438 1.859375 -1.171875 C 1.171875 -2.066406 0.828125 -3.234375 0.828125 -4.671875 Z M 2.4375 -4.609375 C 2.4375 -3.546875 2.65625 -2.710938 3.09375 -2.109375 C 3.539062 -1.503906 4.15625 -1.203125 4.9375 -1.203125 C 5.957031 -1.203125 6.707031 -1.660156 7.1875 -2.578125 L 7.1875 -6.90625 C 6.695312 -7.800781 5.953125 -8.25 4.953125 -8.25 C 4.160156 -8.25 3.539062 -7.941406 3.09375 -7.328125 C 2.65625 -6.722656 2.4375 -5.816406 2.4375 -4.609375 Z M 2.4375 -4.609375 "/></g></g></g></svg>